<?xml version="1.0" encoding="UTF-8" standalone="no"?>
<!DOCTYPE svg PUBLIC "-//W3C//DTD SVG 1.1//EN" "http://www.w3.org/Graphics/SVG/1.1/DTD/svg11.dtd">
<svg width="100%" height="100%" viewBox="0 0 641 261" version="1.1" xmlns="http://www.w3.org/2000/svg" xmlns:xlink="http://www.w3.org/1999/xlink" xml:space="preserve" xmlns:serif="http://www.serif.com/" style="fill-rule:evenodd;clip-rule:evenodd;stroke-linecap:round;stroke-linejoin:round;stroke-miterlimit:1.5;">
    <g transform="matrix(1,0,0,1,0,-119)">
        <g id="SpeakBubble" transform="matrix(0.95813,0,0,0.800886,690.905,22.9566)">
            <rect x="-721.098" y="119.921" width="668.006" height="325.475" style="fill:none;"/>
            <g transform="matrix(1.0437,0,0,1.24862,-728.211,-48.8877)">
                <path d="M546.589,335.451L629.583,314.397L547.833,291.079L547.833,206.857C547.833,174.688 521.717,148.572 489.548,148.572L74.914,148.572C42.745,148.572 16.629,174.688 16.629,206.857L16.629,323.426C16.629,355.594 42.745,381.711 74.914,381.711L489.548,381.711C517.596,381.711 541.043,361.857 546.589,335.451Z" style="fill:none;stroke:rgb(206,206,206);stroke-width:13.94px;"/>
            </g>
        </g>
    </g>
</svg>
