<?xml version="1.0" encoding="UTF-8" standalone="no"?>
<!DOCTYPE svg PUBLIC "-//W3C//DTD SVG 1.1//EN" "http://www.w3.org/Graphics/SVG/1.1/DTD/svg11.dtd">
<svg width="100%" height="100%" viewBox="0 0 173 235" version="1.1" xmlns="http://www.w3.org/2000/svg" xmlns:xlink="http://www.w3.org/1999/xlink" xml:space="preserve" xmlns:serif="http://www.serif.com/" style="fill-rule:evenodd;clip-rule:evenodd;stroke-linecap:round;stroke-linejoin:round;stroke-miterlimit:1.5;">
    <g id="TheDude" transform="matrix(0.0573376,0,0,0.111728,8.12659,5.27848)">
        <rect x="-141.732" y="-47.244" width="3000" height="2102.36" style="fill:none;"/>
        <g transform="matrix(13.9584,0,0,8.95032,-11362.9,-4710.62)">
            <path d="M1007.55,673.228C1007.55,666.71 1000.94,661.417 992.792,661.417L825.128,661.417C816.984,661.417 810.371,666.71 810.371,673.228C810.371,679.747 816.984,685.039 825.128,685.039L992.792,685.039C1000.94,685.039 1007.55,679.747 1007.55,673.228Z" style="fill:rgb(228,155,136);"/>
        </g>
        <g transform="matrix(15.0623,0,0,3.97792,-15583.1,-610.772)">
            <path d="M1169.29,236.22L1094.07,236.22C1063.88,236.22 1039.37,283.852 1039.37,342.52L1039.37,448.819L1169.29,448.819L1169.29,236.22Z" style="fill:rgb(111,56,0);"/>
        </g>
        <g transform="matrix(0.986423,0,0,2.0221,-953.041,400.937)">
            <path d="M1169.29,236.22L1104.33,236.22C1068.48,236.22 1039.37,243.507 1039.37,252.483L1039.37,432.556C1039.37,441.532 1068.48,448.819 1104.33,448.819L1169.29,448.819L1169.29,236.22Z" style="fill:rgb(111,56,0);"/>
        </g>
        <g transform="matrix(-0.986423,0,0,2.73482,3589.97,81.0561)">
            <path d="M1169.29,236.22L1104.33,236.22C1068.48,236.22 1039.37,241.608 1039.37,248.245L1039.37,436.795C1039.37,443.431 1068.48,448.819 1104.33,448.819L1169.29,448.819L1169.29,236.22Z" style="fill:rgb(111,56,0);"/>
        </g>
        <g transform="matrix(17.4406,0,0,6.99712,-17931.4,-1183.57)">
            <path d="M1169.29,236.22L1104.33,236.22C1068.48,236.22 1039.37,273.454 1039.37,319.314L1039.37,448.819L1169.29,448.819L1169.29,236.22Z" style="fill:rgb(238,193,160);"/>
        </g>
        <g transform="matrix(17.4406,0,0,12.9993,-17684.2,-7478.22)">
            <path d="M1034.65,659.946C1033.87,645.001 1040.79,633.166 1055.91,625.689L1055.85,625.734C1057.91,624.672 1058.33,622.658 1056.79,621.238C1055.24,619.819 1052.32,619.529 1050.26,620.591L1050.26,620.606C1031.77,630.658 1024.59,643.317 1025.2,659.946C1025.2,659.946 1025.2,703.046 1025.2,703.046C1025.2,704.842 1027.31,706.299 1029.92,706.299C1032.53,706.299 1034.65,704.842 1034.65,703.046L1034.65,659.946" style="fill:rgb(246,214,184);"/>
        </g>
        <g transform="matrix(14.9311,0,0,8.95032,-15778.9,-5612.14)">
            <rect x="1062.99" y="833.858" width="164.173" height="16.535" style="fill:rgb(205,205,205);"/>
        </g>
        <g transform="matrix(14.9311,0,0,3.19654,-15778.9,-719.169)">
            <rect x="1062.99" y="833.858" width="164.173" height="16.535" style="fill:rgb(236,233,232);"/>
        </g>
        <g transform="matrix(16.1964,0,0,10.3325,-13334.9,-6359.09)">
            <path d="M975.313,683.084C975.313,668.967 961.066,657.506 943.517,657.506L890.295,657.506L890.295,683.084C890.295,697.2 904.543,708.661 922.091,708.661L975.313,708.661L975.313,683.084Z" style="fill:rgb(224,152,128);"/>
        </g>
        <g transform="matrix(18.412,0,0,10.3325,-15310.3,-6464.8)">
            <path d="M975.313,693.826C975.313,673.781 957.516,657.506 935.596,657.506L890.295,657.506L890.295,683.084C890.295,697.2 902.828,708.661 918.265,708.661L975.313,708.661L975.313,693.826Z" style="fill:rgb(111,56,0);"/>
        </g>
        <g transform="matrix(24.131,0,0,12.3838,-23692.3,-7328.19)">
            <circle cx="1024.39" cy="693.771" r="3.079" style="fill:rgb(0,87,163);"/>
        </g>
        <g transform="matrix(17.4406,0,0,8.95032,-16098.1,-4528.59)">
            <g transform="matrix(0.575418,0,0,0.575418,406.737,262.799)">
                <circle cx="1024.39" cy="693.771" r="3.079" style="fill:rgb(174,108,84);"/>
            </g>
            <g transform="matrix(0.575418,0,0,0.575418,413.233,262.799)">
                <circle cx="1024.39" cy="693.771" r="3.079" style="fill:rgb(174,108,84);"/>
            </g>
        </g>
        <g transform="matrix(23.4164,0,0,12.0171,-22401.3,-7074.92)">
            <circle cx="1024.39" cy="693.771" r="3.079" style="fill:rgb(0,87,163);"/>
        </g>
        <g transform="matrix(17.4406,0,0,8.95032,-16098.1,-4533.88)">
            <g transform="matrix(1.12532,0,0,1.17132,-123.212,-180.803)">
                <path d="M985.845,693.771C985.845,692.072 984.409,690.693 982.64,690.693L974.913,690.693C973.145,690.693 971.709,692.072 971.709,693.771C971.709,695.471 973.145,696.85 974.913,696.85L982.64,696.85C984.409,696.85 985.845,695.471 985.845,693.771Z" style="fill:rgb(111,56,0);"/>
            </g>
            <g transform="matrix(0.543074,0,0,0.565272,446.404,238.508)">
                <path d="M985.845,693.771C985.845,692.072 984.409,690.693 982.64,690.693L974.913,690.693C973.145,690.693 971.709,692.072 971.709,693.771C971.709,695.471 973.145,696.85 974.913,696.85L982.64,696.85C984.409,696.85 985.845,695.471 985.845,693.771Z" style="fill:rgb(164,89,14);"/>
            </g>
        </g>
        <g transform="matrix(17.4406,0,0,8.95032,-15408,-4533.88)">
            <g transform="matrix(1.12532,0,0,1.17132,-123.212,-180.803)">
                <path d="M985.845,693.771C985.845,692.072 984.409,690.693 982.64,690.693L974.913,690.693C973.145,690.693 971.709,692.072 971.709,693.771C971.709,695.471 973.145,696.85 974.913,696.85L982.64,696.85C984.409,696.85 985.845,695.471 985.845,693.771Z" style="fill:rgb(111,56,0);"/>
            </g>
            <g transform="matrix(0.543074,0,0,0.565272,446.404,238.508)">
                <path d="M985.845,693.771C985.845,692.072 984.409,690.693 982.64,690.693L974.913,690.693C973.145,690.693 971.709,692.072 971.709,693.771C971.709,695.471 973.145,696.85 974.913,696.85L982.64,696.85C984.409,696.85 985.845,695.471 985.845,693.771Z" style="fill:rgb(164,89,14);"/>
            </g>
        </g>
        <g transform="matrix(17.4406,0,0,8.95032,-16203.3,-4834.03)">
            <path d="M985.845,693.771C985.845,692.072 984.466,690.693 982.766,690.693L974.788,690.693C973.088,690.693 971.709,692.072 971.709,693.771C971.709,695.471 973.088,696.85 974.788,696.85L982.766,696.85C984.466,696.85 985.845,695.471 985.845,693.771Z" style="fill:rgb(228,172,147);"/>
        </g>
        <g transform="matrix(17.4406,0,0,8.95032,-15330,-4838.19)">
            <path d="M985.845,693.771C985.845,692.072 984.466,690.693 982.766,690.693L974.788,690.693C973.088,690.693 971.709,692.072 971.709,693.771C971.709,695.471 973.088,696.85 974.788,696.85L982.766,696.85C984.466,696.85 985.845,695.471 985.845,693.771Z" style="fill:rgb(228,172,147);"/>
        </g>
        <g transform="matrix(24.8023,0,0,11.9338,-23497.8,-7250.69)">
            <g transform="matrix(6.1149e-17,1,-1,6.1149e-17,1861.4,-300)">
                <path d="M1068.9,856.299C1068.9,856.299 1058.27,870.819 1058.27,877.042C1058.27,882.542 1063.03,887.008 1068.9,887.008C1074.76,887.008 1079.53,882.542 1079.53,877.042C1079.53,870.819 1068.9,856.299 1068.9,856.299Z" style="fill:rgb(163,0,30);"/>
            </g>
            <g transform="matrix(-6.1149e-17,1,1,6.1149e-17,140.551,-300)">
                <path d="M1068.9,856.299C1068.9,856.299 1058.27,870.819 1058.27,877.042C1058.27,882.542 1063.03,887.008 1068.9,887.008C1074.76,887.008 1079.53,882.542 1079.53,877.042C1079.53,870.819 1068.9,856.299 1068.9,856.299Z" style="fill:rgb(163,0,30);"/>
            </g>
        </g>
        <g transform="matrix(17.4406,0,0,8.95032,-18673,-5094.15)">
            <path d="M1161.02,738.189C1161.02,746.011 1154.67,752.362 1146.85,752.362C1139.03,752.362 1132.68,746.011 1132.68,738.189" style="fill:rgb(236,233,232);"/>
        </g>
        <g transform="matrix(17.4406,0,0,8.95032,-16028.4,-4979.64)">
            <g transform="matrix(6.33342e-17,-1,1.72611,1.06912e-16,-347.116,1850.39)">
                <path d="M1128.54,759.449C1128.54,759.449 1122.05,770.043 1122.05,774.583C1122.05,776.66 1124.96,778.346 1128.54,778.346C1132.13,778.346 1135.04,776.66 1135.04,774.583C1135.04,770.043 1128.54,759.449 1128.54,759.449Z" style="fill:rgb(111,56,0);"/>
            </g>
            <g transform="matrix(-6.33342e-17,-1,-1.72611,1.06912e-16,2338,1850.39)">
                <path d="M1128.54,759.449C1128.54,759.449 1122.05,770.043 1122.05,774.583C1122.05,776.66 1124.96,778.346 1128.54,778.346C1132.13,778.346 1135.04,776.66 1135.04,774.583C1135.04,770.043 1128.54,759.449 1128.54,759.449Z" style="fill:rgb(111,56,0);"/>
            </g>
        </g>
        <g transform="matrix(16.3154,0,0,8.95032,-17284.2,-4613.16)">
            <rect x="1051.18" y="572.835" width="183.071" height="17.717"/>
        </g>
        <g transform="matrix(29.649,0,0,7.16339,-34184.1,-3129.53)">
            <path d="M1240.16,453.248C1240.16,441.026 1235.49,431.102 1229.73,431.102L1167.91,431.102C1162.15,431.102 1157.48,441.026 1157.48,453.248L1157.48,519.685L1240.16,519.685L1240.16,453.248Z"/>
        </g>
        <g transform="matrix(1.4141,0,0,0.725702,-586.118,-484.662)">
            <g transform="matrix(1,0,0,1,-271.654,-50.5344)">
                <path d="M1524.51,1278.88C1466.94,1239.54 1429.13,1173.36 1429.13,1098.42C1429.13,977.83 1527.04,879.921 1647.64,879.921C1768.23,879.921 1866.14,977.83 1866.14,1098.42C1866.14,1173.36 1828.34,1239.54 1770.77,1278.88L1705.65,1180.32C1731.29,1162.14 1748.03,1132.23 1748.03,1098.42C1748.03,1043.02 1703.05,998.031 1647.64,998.031C1592.23,998.031 1547.24,1043.02 1547.24,1098.42C1547.24,1132.23 1563.98,1162.14 1589.63,1180.32L1524.51,1278.88Z" style="fill:rgb(201,201,201);stroke:rgb(88,88,88);stroke-width:12.5px;"/>
            </g>
            <g transform="matrix(1,0,0,1,-141.732,-47.2441)">
                <path d="M1640.85,1275.88C1605.78,1299.89 1563.37,1313.93 1517.72,1313.93C1472.06,1313.93 1429.65,1299.89 1394.59,1275.88L1517.72,1089.52L1640.85,1275.88Z" style="fill:rgb(185,185,185);stroke:rgb(88,88,88);stroke-width:12.5px;"/>
            </g>
        </g>
        <g transform="matrix(17.4406,0,0,8.95032,-18333.1,-5194.58)">
            <path d="M1132.68,793.11C1132.68,791.481 1131.35,790.157 1129.72,790.157L1123.82,790.157C1122.19,790.157 1120.87,791.481 1120.87,793.11L1120.87,799.016C1120.87,800.645 1122.19,801.969 1123.82,801.969L1129.72,801.969C1131.35,801.969 1132.68,800.645 1132.68,799.016L1132.68,793.11Z" style="fill:rgb(181,50,74);"/>
        </g>
        <g transform="matrix(12.8113,0,0,8.95032,-13136.2,-4842.06)">
            <rect x="1035.83" y="594.094" width="191.339" height="4.724" style="fill:rgb(198,0,36);"/>
        </g>
    </g>
</svg>
