<svg viewBox="0 0 173 235" xmlns="http://www.w3.org/2000/svg" xml:space="preserve" style="fill-rule:evenodd;clip-rule:evenodd;stroke-linecap:round;stroke-linejoin:round;stroke-miterlimit:1.5"><path style="fill:none" d="M-141.732-47.244h3000v2102.36h-3000z" transform="matrix(.05734 0 0 .11173 8.127 5.278)"/><path d="M1007.55 673.228c0-6.518-6.61-11.811-14.758-11.811H825.128c-8.144 0-14.757 5.293-14.757 11.811 0 6.519 6.613 11.811 14.757 11.811h167.664c8.148 0 14.758-5.292 14.758-11.811Z" style="fill:#e49b88" transform="matrix(.80034 0 0 1 -643.395 -521.03)"/><path d="M1169.29 236.22h-75.22c-30.19 0-54.7 47.632-54.7 106.3v106.299h129.92V236.22Z" style="fill:#6f3800" transform="matrix(.86364 0 0 .44445 -885.371 -62.962)"/><path d="M1169.29 236.22h-64.96c-35.85 0-64.96 7.287-64.96 16.263v180.073c0 8.976 29.11 16.263 64.96 16.263h64.96V236.22Z" style="fill:#6f3800" transform="matrix(.05656 0 0 .22593 -46.518 50.074)"/><path d="M1169.29 236.22h-64.96c-35.85 0-64.96 5.388-64.96 12.025v188.55c0 6.636 29.11 12.024 64.96 12.024h64.96V236.22Z" style="fill:#6f3800" transform="matrix(-.05656 0 0 .30556 213.967 14.335)"/><path d="M1169.29 236.22h-64.96c-35.85 0-64.96 37.234-64.96 83.094v129.505h129.92V236.22Z" style="fill:#eec1a0" transform="matrix(1 0 0 .78177 -1020.017 -126.96)"/><path d="M1034.65 659.946c-.78-14.945 6.14-26.78 21.26-34.257l-.06.045c2.06-1.062 2.48-3.076.94-4.496-1.55-1.419-4.47-1.709-6.53-.647v.015c-18.49 10.052-25.67 22.711-25.06 39.34v43.1c0 1.796 2.11 3.253 4.72 3.253s4.73-1.457 4.73-3.253v-43.1" style="fill:#f6d6b8" transform="matrix(1 0 0 1.45239 -1005.843 -830.248)"/><path style="fill:#cdcdcd" d="M1062.99 833.858h164.173v16.535H1062.99z" transform="matrix(.85611 0 0 1 -896.598 -621.755)"/><path style="fill:#ece9e8" d="M1062.99 833.858h164.173v16.535H1062.99z" transform="matrix(.85611 0 0 .35714 -896.598 -75.073)"/><path d="M975.313 683.084c0-14.117-14.247-25.578-31.796-25.578h-53.222v25.578c0 14.116 14.248 25.577 31.796 25.577h53.222v-25.577Z" style="fill:#e09880" transform="matrix(.92866 0 0 1.15443 -756.465 -705.21)"/><path d="M975.313 693.826c0-20.045-17.797-36.32-39.717-36.32h-45.301v25.578c0 14.116 12.533 25.577 27.97 25.577h57.048v-14.835Z" style="fill:#6f3800" transform="matrix(1.0557 0 0 1.15443 -869.73 -717.02)"/><circle cx="1024.39" cy="693.771" r="3.079" style="fill:#0057a3" transform="matrix(1.38361 0 0 1.38362 -1350.333 -813.486)"/><circle cx="1024.39" cy="693.771" r="3.079" style="fill:#ae6c54" transform="matrix(.57542 0 0 .57542 -508.162 -237.892)"/><circle cx="1024.39" cy="693.771" r="3.079" style="fill:#ae6c54" transform="matrix(.57542 0 0 .57542 -501.666 -237.892)"/><circle cx="1024.39" cy="693.771" r="3.079" style="fill:#0057a3" transform="matrix(1.34264 0 0 1.34265 -1276.31 -785.188)"/><path d="M985.845 693.771c0-1.699-1.436-3.078-3.205-3.078h-7.727c-1.768 0-3.204 1.379-3.204 3.078 0 1.7 1.436 3.079 3.204 3.079h7.727c1.769 0 3.205-1.379 3.205-3.079Z" style="fill:#6f3800" transform="matrix(1.12532 0 0 1.17132 -1038.112 -682.086)"/><path d="M985.845 693.771c0-1.699-1.436-3.078-3.205-3.078h-7.727c-1.768 0-3.204 1.379-3.204 3.078 0 1.7 1.436 3.079 3.204 3.079h7.727c1.769 0 3.205-1.379 3.205-3.079Z" style="fill:#a4590e" transform="matrix(.54308 0 0 .56527 -468.495 -262.775)"/><path d="M985.845 693.771c0-1.699-1.436-3.078-3.205-3.078h-7.727c-1.768 0-3.204 1.379-3.204 3.078 0 1.7 1.436 3.079 3.204 3.079h7.727c1.769 0 3.205-1.379 3.205-3.079Z" style="fill:#6f3800" transform="matrix(1.12532 0 0 1.17132 -998.543 -682.086)"/><path d="M985.845 693.771c0-1.699-1.436-3.078-3.205-3.078h-7.727c-1.768 0-3.204 1.379-3.204 3.078 0 1.7 1.436 3.079 3.204 3.079h7.727c1.769 0 3.205-1.379 3.205-3.079Z" style="fill:#a4590e" transform="matrix(.54308 0 0 .56527 -428.926 -262.775)"/><path d="M985.845 693.771a3.08 3.08 0 0 0-3.079-3.078h-7.978a3.08 3.08 0 0 0 0 6.157h7.978a3.08 3.08 0 0 0 3.079-3.079Z" style="fill:#e4ac93" transform="translate(-920.932 -534.818)"/><path d="M985.845 693.771a3.08 3.08 0 0 0-3.079-3.078h-7.978a3.08 3.08 0 0 0 0 6.157h7.978a3.08 3.08 0 0 0 3.079-3.079Z" style="fill:#e4ac93" transform="translate(-870.859 -535.283)"/><path d="M1068.9 856.299s-10.63 14.52-10.63 20.743c0 5.5 4.76 9.966 10.63 9.966 5.86 0 10.63-4.466 10.63-9.966 0-6.223-10.63-20.743-10.63-20.743Z" style="fill:#a3001e" transform="scale(1.4221 1.33334) rotate(90 911.664 8.047)"/><path d="M1068.9 856.299s-10.63 14.52-10.63 20.743c0 5.5 4.76 9.966 10.63 9.966 5.86 0 10.63-4.466 10.63-9.966 0-6.223-10.63-20.743-10.63-20.743Z" style="fill:#a3001e" transform="matrix(0 1.33334 1.4221 0 -1139.303 -1204.828)"/><path d="M1161.02 738.189c0 7.822-6.35 14.173-14.17 14.173s-14.17-6.351-14.17-14.173" style="fill:#ece9e8" transform="translate(-1062.538 -563.88)"/><path d="M1128.54 759.449s-6.49 10.594-6.49 15.134c0 2.077 2.91 3.763 6.49 3.763 3.59 0 6.5-1.686 6.5-3.763 0-4.54-6.5-15.134-6.5-15.134Z" style="fill:#6f3800" transform="matrix(0 -1 1.72611 0 -1258.02 1299.306)"/><path d="M1128.54 759.449s-6.49 10.594-6.49 15.134c0 2.077 2.91 3.763 6.49 3.763 3.59 0 6.5-1.686 6.5-3.763 0-4.54-6.5-15.134-6.5-15.134Z" style="fill:#6f3800" transform="matrix(0 -1 -1.72611 0 1427.102 1299.306)"/><path d="M.456 62.695h171.26v17.717H.456z"/><path d="M156.367 18.38c0-9.782-7.939-17.725-17.73-17.725H33.541c-9.792 0-17.73 7.943-17.73 17.725v53.173h140.555V18.38Z"/><path d="M1524.51 1278.88c-57.57-39.34-95.38-105.52-95.38-180.46 0-120.59 97.91-218.499 218.51-218.499 120.59 0 218.5 97.909 218.5 218.499 0 74.94-37.8 141.12-95.37 180.46l-65.12-98.56c25.64-18.18 42.38-48.09 42.38-81.9 0-55.4-44.98-100.389-100.39-100.389-55.41 0-100.4 44.989-100.4 100.389 0 33.81 16.74 63.72 42.39 81.9l-65.12 98.56Z" style="fill:#c9c9c9;stroke:#585858;stroke-width:12.5px" transform="translate(-47.506 -52.97) scale(.08108)"/><path d="M1640.85 1275.88c-35.07 24.01-77.48 38.05-123.13 38.05-45.66 0-88.07-14.04-123.13-38.05l123.13-186.36 123.13 186.36Z" style="fill:#b9b9b9;stroke:#585858;stroke-width:12.5px" transform="translate(-36.972 -52.702) scale(.08108)"/><path d="M1132.68 793.11a2.96 2.96 0 0 0-2.96-2.953h-5.9a2.952 2.952 0 0 0-2.95 2.953v5.906a2.952 2.952 0 0 0 2.95 2.953h5.9a2.96 2.96 0 0 0 2.96-2.953v-5.906Z" style="fill:#b5324a" transform="translate(-1043.05 -575.102)"/><path style="fill:#c60024" d="M1035.83 594.094h191.339v4.724H1035.83z" transform="matrix(.73457 0 0 1 -745.072 -535.715)"/></svg>